<?xml version="1.0"?>
<svg width="132.29167mm" height="24.903255mm" viewBox="0 0 132.29167 24.903255" version="1.1" xmlns="http://www.w3.org/2000/svg">
  <g transform="translate(-78.458032,-106.20812)">
    <path d="m 78.458032,122.79621 h 11.281183 c -0.174503,2.50107 1.047504,3.08193 1.629277,3.48974 0.639007,0.23191 5.350191,0.46397 7.675395,0.0568 0.931064,-0.17393 1.802463,-0.52288 1.802463,-3.37285 0,-1.22061 -0.29108,-2.55817 -1.686423,-2.84997 -4.943265,-0.40593 -9.769604,0.11681 -14.712012,-0.34889 -4.943264,-1.10371 -5.698112,-2.38419 -5.989883,-6.27989 0.34892,-5.40814 2.268197,-6.97764 7.792349,-7.15254 a 285.81454,285.81454 0 0 1 17.271069,0 c 5.87296,0 7.67539,2.26911 7.67539,7.21146 h -10.35049 c 0,-2.4431 -0.46456,-3.37282 -1.686423,-3.48975 a 54.80579,54.80579 0 0 0 -7.559469,0 c -0.931064,0 -2.151244,0.46585 -2.151244,2.67507 0,2.09238 0.523367,2.61618 1.919278,2.79199 4.244567,0.17308 8.548053,0.23191 12.734728,0.521 6.97758,0.40781 7.21046,3.48975 7.44243,6.74567 0.11567,4.65329 -1.57036,6.27989 -2.79102,7.03748 -1.16266,0.52285 -6.80365,1.16354 -7.90828,1.16354 H 89.682095 c -2.50105,0 -5.640992,-0.29089 -8.374122,-1.10557 -2.559055,-0.69681 -2.849941,-4.12764 -2.849941,-7.09362 z m 106.008668,8.31517 h 9.88468 v -24.65463 h -9.88468 z m 16.51337,0 h 9.76963 v -24.65463 h -9.76963 z m -22.2704,-12.90955 a 16.951621,16.951621 0 0 0 -0.69975,-2.26728 c -1.68643,-2.73307 -7.5005,-2.73307 -13.14057,-2.84997 -4.2446,0 -10.58249,0.11681 -12.44376,1.91839 -0.75659,0.81463 -1.16363,1.97731 -1.3956,3.19886 -0.29108,1.45443 -0.23334,2.96501 -0.23334,3.66371 0,1.27862 0.11653,6.22097 2.50105,7.50049 2.20928,1.45446 8.89609,1.62937 11.45426,1.62937 2.73302,0 10.29337,-0.29089 11.39888,-1.57136 1.97554,-0.69781 2.44128,-3.13903 2.8482,-5.05742 h -9.71074 c 0,1.91839 -1.51244,3.08196 -4.53634,2.90521 -2.7331,0.17593 -4.3026,-0.46397 -4.3026,-3.89385 l 18.5488,0.0568 c 8.8e-4,-1.68548 0.0588,-3.4888 -0.28815,-5.23321 z m -9.42168,1.6864 h -8.83897 c 0,-0.69781 0.11652,-1.28044 0.29109,-1.6864 0.63803,-1.56953 2.26728,-1.62753 4.01074,-1.74443 2.67509,0 3.83864,0.63981 4.30446,1.74443 0.23333,0.46582 0.29108,1.04665 0.23333,1.6864 z m -51.9273,11.22315 h 9.6527 v -10.46739 c 0.23334,-1.4526 0.58218,-2.61615 4.12865,-2.61615 3.37193,-0.0568 4.30248,0.87178 4.30248,2.61615 v 10.46739 h 9.65282 v -10.46739 c 0,-3.43083 -0.0588,-5.29121 -2.26731,-6.27803 -1.97728,-1.28047 -4.82731,-1.10556 -7.50143,-1.10556 -2.79105,0 -5.931,0.34889 -8.31521,1.51243 v -8.31517 h -9.6527 z" fill="#ed1c24" style="stroke-width:0.920534"></path>
  </g>
</svg>